<?xml version="1.0" encoding="UTF-8"?>
<svg id="Layer_2" data-name="Layer 2" xmlns="http://www.w3.org/2000/svg" viewBox="0 0 517 596">
  <defs>
    <style>
      .cls-1 {
        fill: none;
      }

      .cls-2 {
        fill: #fff;
      }

      .cls-3 {
        fill: #4d8062;
      }
    </style>
  </defs>
  <g id="Layer_1-2" data-name="Layer 1">
    <g>
      <path class="cls-1" d="M452.35,288.6c-1.01-.26-1.99-.58-2.96-.93,.96,.36,1.95,.67,2.96,.93Z"/>
      <path class="cls-1" d="M449.46,227.71c1.92-.71,3.93-1.24,6.01-1.56-2.07,.32-4.08,.85-6.01,1.56Z"/>
      <path class="cls-1" d="M203.51,298.77c-4.54-3.28-9.64-5.88-15.15-7.52,5.51,1.64,10.61,4.24,15.15,7.52h0Z"/>
      <polygon class="cls-1" points="309.66 298.27 291.39 279.77 309.66 298.27 309.66 298.27"/>
      <path class="cls-1" d="M294.95,273.17c.97-2.31,1.71-4.73,2.2-7.23h0c-.49,2.5-1.23,4.92-2.2,7.23Z"/>
      <path class="cls-1" d="M447.97,287.09c-11.29-4.86-19.16-16.23-19.16-29.48s8.64-25.46,20.66-29.9c-12.02,4.44-20.66,16.11-20.66,29.9s7.87,24.62,19.16,29.48Z"/>
      <ellipse class="cls-1" cx="257.98" cy="57.82" rx="23.43" ry="23.83"/>
      <path class="cls-1" d="M384.21,150.13c12.79,0,23.43-10.52,23.43-23.83s-10.53-23.83-23.43-23.83-23.56,10.68-23.43,23.75v.04s0,.04,0,.04c0,13.2,10.53,23.83,23.43,23.83Z"/>
      <path class="cls-1" d="M460.24,281.61c12.74,0,23.43-10.63,23.43-23.99s-10.53-23.83-23.43-23.83-23.43,10.52-23.43,23.83,10.55,23.99,23.43,23.99Z"/>
      <path class="cls-1" d="M386.18,338.59c0,27.16-21.89,49.32-48.71,49.32h0c26.82,0,48.71-22.16,48.71-49.32s-21.89-49.32-48.71-49.32h0c26.82,0,48.71,22.16,48.71,49.32Z"/>
      <path class="cls-1" d="M40.82,559.06c3.55,3.83,8.66,6.23,15.16,6.23s11.51-2.39,15.07-6.23c3.6-3.88,5.96-9.64,5.96-16.9s-2.38-13.32-5.98-17.23c-3.55-3.87-8.66-6.25-15.05-6.25-12.05,0-21.03,8.97-21.2,23.47,.09,7.27,2.45,13.03,6.04,16.9Z"/>
      <polygon class="cls-1" points="215.19 311.1 235.27 290.77 235.27 290.77 215.19 311.1"/>
      <path class="cls-1" d="M153.05,126.31c0-13.14-10.64-23.83-23.6-23.83s-23.43,10.52-23.43,23.83,10.66,23.95,23.52,23.83h.04s.04,0,.04,0c12.8,0,23.43-10.52,23.43-23.83Z"/>
      <path class="cls-1" d="M460.57,207.96h0c12.65,0,24.18,4.87,32.79,12.84-8.61-7.97-20.14-12.84-32.79-12.84Z"/>
      <path class="cls-1" d="M216.16,312.59c3.12,5.02,5.38,10.67,6.54,16.7-1.16-6.03-3.42-11.68-6.54-16.7Z"/>
      <path class="cls-1" d="M223.02,331.11c.19,1.22,.33,2.46,.43,3.7-.1-1.25-.24-2.48-.43-3.7Z"/>
      <path class="cls-1" d="M495.04,222.43c1.64,1.68,3.16,3.47,4.55,5.37-1.39-1.9-2.91-3.69-4.55-5.37Z"/>
      <path class="cls-1" d="M499.59,227.8c1.39,1.9,2.64,3.91,3.74,6-1.1-2.1-2.35-4.1-3.74-6Z"/>
      <path class="cls-1" d="M337.96,361.92c12.8,0,23.43-10.52,23.43-23.83s-10.53-23.83-23.43-23.83-23.56,10.68-23.43,23.75v.04s0,.04,0,.04c0,13.2,10.53,23.83,23.43,23.83Z"/>
      <polygon class="cls-1" points="457.55 588.83 457.64 595.83 457.55 588.83 457.55 588.83"/>
      <ellipse class="cls-1" cx="174.87" cy="338.26" rx="23.43" ry="23.83"/>
      <polygon class="cls-1" points="330.66 582.21 334.27 588.2 330.66 582.21 330.66 582.21"/>
      <polygon class="cls-1" points="405.54 513.94 405.14 520.93 405.54 513.94 405.54 513.94"/>
      <path class="cls-1" d="M49.38,226.78c1-.26,2.02-.47,3.06-.63-1.04,.16-2.06,.37-3.06,.63Z"/>
      <path class="cls-1" d="M57.21,233.79c-12.8,0-23.43,10.52-23.43,23.83s10.55,23.99,23.43,23.99,23.43-10.63,23.43-23.99-10.53-23.83-23.43-23.83Z"/>
      <path class="cls-1" d="M46.43,227.71c-12.02,4.44-20.66,16.11-20.66,29.9,0-13.8,8.64-25.46,20.66-29.9Z"/>
      <path class="cls-3" d="M223.44,334.82c-.1-1.25-.24-2.48-.43-3.7-.09-.61-.2-1.22-.32-1.82-1.16-6.03-3.42-11.68-6.54-16.7-.31-.5-.63-1-.96-1.49l20.08-20.33h0s0,0,0,0c5.62,3.94,12.37,6.47,19.59,7.04,1.03,.08,2.07,.12,3.12,.12,7.73,0,15.14-2.33,21.23-6.17l18.43,18.66c-5.6,8-8.89,17.66-8.89,28.16,0,9.34,2.59,18.08,7.07,25.54,.82,1.36,1.69,2.67,2.63,3.94,.94,1.27,1.93,2.49,2.98,3.66,8.92,9.94,21.78,16.19,36.03,16.19,26.82,0,48.71-22.16,48.71-49.32s-21.89-49.32-48.71-49.32c-10.37,0-19.91,3.33-27.81,9h0l-18.27-18.5c1.4-2.08,2.59-4.29,3.56-6.6s1.71-4.73,2.2-7.23h114.87c4.11,23.16,24.03,40.66,48.05,40.66,26.82,0,48.71-22.16,48.71-49.32,.21-8.49-1.79-16.49-5.46-23.47-1.1-2.1-2.35-4.1-3.74-6s-2.91-3.69-4.55-5.37c-.55-.56-1.11-1.1-1.68-1.64-8.61-7.97-20.14-12.84-32.79-12.84s-23,4.42-31.49,11.71c-.53,.46-1.05,.92-1.56,1.4-1.53,1.43-2.98,2.96-4.32,4.58-.9,1.08-1.75,2.2-2.55,3.35-.8,1.15-1.56,2.34-2.26,3.57-2.82,4.89-4.84,10.3-5.87,16.05h-114.87c-1.15-5.33-3.29-10.16-6.09-14.5l65.83-66.49c7.73,5,16.79,8,26.5,8,26.82,0,48.71-22.16,48.71-49.32s-21.89-49.32-48.71-49.32c-5.03,0-9.89,.78-14.46,2.22-19.81,6.26-34.26,25.03-34.26,47.1,0,8.94,2.39,17.43,6.55,24.68,.96,1.67,2.02,3.28,3.16,4.81l-65.83,66.49c-3.79-2.33-7.73-4-12.18-4.83V105.81c22.88-4.17,40.32-24.33,40.32-48.49,0-27.16-21.89-49.32-48.71-49.32s-48.71,22.16-48.71,49.32c0,24.33,17.44,44.49,40.32,48.49v111.64c-4.94,1.17-9.54,3.17-13.66,5.83l-67.47-67.99c5.92-8.16,9.38-18.16,9.38-28.99,0-27.16-21.89-49.32-48.71-49.32s-48.88,22.16-48.88,49.32,21.89,49.32,48.71,49.32c10.04,0,19.42-3,27.15-8.33l67.64,68.49c-2.47,3.83-4.28,8.16-5.27,12.83H104.77c-4.11-23.16-24.03-40.66-48.05-40.66-26.82,0-48.71,22.16-48.71,49.32s21.89,49.32,48.71,49.32c24.03,0,43.94-17.66,48.05-40.66h114.38c.99,4.5,2.63,8.5,4.77,12.33l-20.41,20.5h0c-4.54-3.28-9.64-5.88-15.15-7.52-4.28-1.28-8.8-1.98-13.48-1.98-26.82,0-48.71,22.16-48.71,49.32s21.89,49.32,48.71,49.32,48.71-22.16,48.71-49.32c0-1.27-.05-2.53-.14-3.78Zm114.52-28.55c17.44,0,31.43,14.33,31.43,31.83s-14.15,31.83-31.43,31.83-31.43-14.33-31.43-31.83c-.16-17.5,13.99-31.83,31.43-31.83Zm111.5-78.56c1.92-.71,3.93-1.24,6.01-1.56,1.56-.24,3.15-.36,4.77-.36,12.54,0,23.29,7.4,28.35,18.06,.22,.46,.43,.93,.63,1.41,.59,1.43,1.09,2.91,1.47,4.43,.64,2.54,.98,5.19,.98,7.93,0,17.66-14.15,31.99-31.43,31.99-2.73,0-5.37-.35-7.88-1.01-1.01-.26-1.99-.58-2.96-.93-.48-.18-.96-.37-1.43-.57-11.29-4.86-19.16-16.23-19.16-29.48s8.64-25.46,20.66-29.9Zm-65.26-133.23c17.44,0,31.43,14.33,31.43,31.83s-14.15,31.83-31.43,31.83-31.43-14.33-31.43-31.83c-.16-17.5,13.99-31.83,31.43-31.83ZM226.55,57.82c0-17.66,14.15-31.83,31.43-31.83s31.43,14.33,31.43,31.83-14.15,31.83-31.43,31.83-31.43-14.33-31.43-31.83Zm-90.62,99.67c-2.04,.42-4.15,.64-6.31,.64-17.44,.17-31.6-14.16-31.6-31.83s14.15-31.83,31.43-31.83c2.73,0,5.37,.35,7.89,1.01,13.63,3.55,23.7,16.06,23.7,30.82s-10.84,28.23-25.12,31.18ZM57.21,289.61c-17.44,0-31.43-14.33-31.43-31.99,0-13.8,8.64-25.46,20.66-29.9,.96-.36,1.94-.66,2.95-.92,1-.26,2.02-.47,3.06-.63,1.56-.24,3.15-.36,4.77-.36,17.44,0,31.43,14.33,31.43,31.83s-14.15,31.99-31.43,31.99Zm117.67,80.48c-17.44,0-31.43-14.33-31.43-31.83s14.15-31.83,31.43-31.83,31.43,14.33,31.43,31.83-13.99,31.83-31.43,31.83Z"/>
      <path class="cls-2" d="M260.88,561.31c.04-10.36-3.79-17.97-9.79-23.43-5.68-5.17-12.94-8.07-19.18-10.14-3.11-1.03-6.39-1.98-9.05-2.81-2.81-.87-5.12-1.66-6.98-2.5-1.9-.86-2.83-1.56-3.24-2.01-.24-.26-.24-.32-.24-.56,0-.63,.13-.83,.13-.83,0,0,.05-.12,.37-.31,.8-.49,2.64-1.08,5.92-1.08,6.57,0,15.44,2.65,22.6,7.12,1.68,1.05,3.73,1.34,5.64,.79,1.91-.55,3.49-1.88,4.36-3.66l7.22-14.8c1.5-3.07,.56-6.77-2.21-8.76-9.65-6.92-23.36-10.72-36.06-10.72-9.7,0-19.67,2.19-27.44,7.62-8.06,5.63-13.25,14.45-13.26,26.16h0s0,.01,0,.02c0,0,0,.01,0,.02h0c-.04,10.31,3.76,17.84,9.76,23.19,5.65,5.04,12.87,7.8,19,9.78,6.75,2.19,11.7,3.36,15.63,5.28,1.8,.87,2.69,1.61,3.12,2.13,.29,.35,.46,.69,.46,1.41,0,.6-.13,.84-.18,.92-.06,.1-.23,.34-.74,.65-1.17,.7-3.47,1.35-7.04,1.35-8.41,0-19.41-3.82-25.92-9.69-1.63-1.47-3.85-2.09-6.01-1.68-2.15,.41-3.99,1.81-4.96,3.78l-7.05,14.28c-1.38,2.79-.75,6.15,1.55,8.26,10.7,9.82,26.81,14.73,41.53,14.73,10.15,0,20.45-2.33,28.44-7.9,8.26-5.75,13.63-14.73,13.64-26.58h0s0-.01,0-.02c0,0,0-.01,0-.02h0Zm-42.08,27.51c-13.41,0-27.68-4.53-36.8-12.89l7.05-14.28c7.91,7.14,20.63,11.49,30.61,11.49,8.43,0,14.96-2.96,14.96-9.93,0-18.98-48.15-8.36-47.97-41.79,0-18.81,16.16-26.82,33.7-26.82,11.52,0,23.73,3.48,31.98,9.4l-7.22,14.8c-8.08-5.05-18.23-8.18-26.31-8.18s-13.41,2.61-13.41,9.23c0,17.07,48.66,7.84,48.49,41.45,0,18.98-16.68,27.51-35.08,27.51Z"/>
      <path class="cls-2" d="M103.77,451.92h-19.77c-3.87,0-7,3.13-7,7v35.65c-7.08-4.54-15.68-6.95-25.5-6.95-14.69,0-27.48,5.45-36.55,15.21-9.03,9.72-13.95,23.22-13.95,38.64s4.85,29.22,13.9,39.08c9.1,9.91,21.99,15.46,36.95,15.46,9.65,0,18.2-2.32,25.24-6.8,.52,3.36,3.41,5.93,6.91,5.93h19.77c3.87,0,7-3.13,7-7v-129.21c0-3.87-3.13-7-7-7Zm0,14v122.21h-19.77v-15.85c-6.53,10.8-17.54,16.72-32.15,16.72-26.31,0-43.85-19.33-43.85-47.54s17.71-46.84,43.5-46.84c14.79,0,25.79,6.1,32.5,16.89v-52.59h19.77v7Z"/>
      <path class="cls-2" d="M55.97,572.28c16.51,0,28.03-12.54,28.03-30.13s-11.52-30.47-28.03-30.47-28.03,12.71-28.2,30.47h0c.17,17.59,11.52,30.13,28.2,30.13Zm0-53.6c6.39,0,11.5,2.38,15.05,6.25,3.59,3.91,5.98,9.76,5.98,17.23s-2.36,13.02-5.96,16.9c-3.56,3.84-8.68,6.23-15.07,6.23s-11.6-2.39-15.16-6.23c-3.59-3.87-5.95-9.63-6.04-16.9,.17-14.51,9.15-23.47,21.2-23.47Z"/>
      <path class="cls-2" d="M158.63,488.49h-19.6c-3.87,0-7,3.13-7,7v92.64c0,3.87,3.13,7,7,7h19.6c3.87,0,7-3.13,7-7v-92.64c0-3.87-3.13-7-7-7Zm0,14v85.64h-19.6v-92.64h19.6v7Z"/>
      <path class="cls-2" d="M510,488.49h-19.77c-3.87,0-7,3.13-7,7v45.62c0,6.81-1.95,12.26-5,15.92-2.94,3.53-7.26,5.84-13.19,5.99-5.02-.02-8.36-1.6-10.46-3.82-2.16-2.28-3.77-6.01-3.77-11.64v-52.07c0-3.87-3.13-7-7-7h-19.78c-3.87,0-7,3.13-7,7v57.64c0,12.35,3.52,23.15,10.79,30.92,7.32,7.83,17.7,11.78,29.74,11.78,.03,0,.05,0,.08,0l-.08-7c-20.98,0-33.53-13.58-33.53-35.7v-57.64h19.78v52.07c0,13.93,8.08,22.46,21.32,22.46h0s0,0,0,0c15.82-.35,25.11-12.71,25.11-28.91v-45.62h19.77v92.64h-19.77v-18.11c-6.19,12.89-17.71,18.63-32.67,18.81l.08,7c9.63-.11,18.42-2.35,25.62-7.16,.27,3.61,3.29,6.46,6.97,6.46h19.77c3.87,0,7-3.13,7-7v-92.64c0-3.87-3.13-7-7-7Z"/>
      <path class="cls-2" d="M405.54,487.79c-9.44,0-17.81,2.49-24.66,7.28-.22-3.67-3.25-6.58-6.98-6.58h-19.77c-3.87,0-7,3.13-7,7v92.64c0,3.87,3.13,7,7,7h19.77c3.87,0,7-3.13,7-7v-47.97c.66-6.24,3.22-11.1,7.03-14.33,3.84-3.26,9.52-5.34,17.21-4.9l.4-6.99h0c-18.4-1.04-30.09,9.93-31.64,25.77v48.41h-19.77v-92.64h19.77v18.46c6.19-12.54,17.19-19.16,31.64-19.16v19.16l-.4,6.99c1.92,.11,3.8-.58,5.2-1.9,1.4-1.32,2.19-3.16,2.19-5.09v-19.16c0-3.87-3.13-7-7-7Z"/>
      <path class="cls-2" d="M332.33,564.72c-.63-1.93-2.06-3.49-3.93-4.28-1.87-.79-3.99-.73-5.81,.16-4.98,2.44-8.14,3.29-10.68,3.29-1.02,0-1.57-.13-1.81-.21-.08-.03-.11-.05-.12-.05-.07-.08-.87-1.18-.87-5.27v-37.41h20c3.87,0,7-3.13,7-7v-14.98c0-3.87-3.13-7-7-7h-20v-18.43c0-3.87-3.13-7-7-7h-19.6c-3.87,0-7,3.13-7,7v18.43h-5.9c-3.87,0-7,3.13-7,7v14.98c0,3.87,3.13,7,7,7h5.9v41.06c0,11.01,3.49,19.77,9.87,25.73,6.29,5.87,14.57,8.26,22.75,8.26,9.25,0,18.06-2.92,26.14-7.8l-3.61-6h0l3.61,6c2.79-1.68,4.05-5.06,3.04-8.16l-4.99-15.32Zm-24.2,24.28c-13.76,0-25.62-8.01-25.62-26.99v-48.06h-12.9v-14.98h12.9v-25.43h19.6v25.43h27v14.98h-27v44.41c0,9.58,3.61,12.54,9.8,12.54,4.13,0,8.43-1.39,13.76-4.01l4.99,15.32c-7.22,4.35-14.79,6.79-22.52,6.79Z"/>
      <path class="cls-2" d="M148.82,450c-10.62,0-18.52,8.41-18.52,19.02s7.97,18.84,18.52,18.84,18.52-8.34,18.52-18.84-7.9-19.02-18.52-19.02Zm0,30.86c-6.53,0-11.52-5.05-11.52-11.84s4.99-12.02,11.52-12.02,11.52,5.05,11.52,12.02-4.99,11.84-11.52,11.84Z"/>
      <path class="cls-3" d="M148.82,457c-6.53,0-11.52,5.05-11.52,12.02s4.99,11.84,11.52,11.84,11.52-5.05,11.52-11.84-4.99-12.02-11.52-12.02Z"/>
      <path class="cls-3" d="M205.4,519.87c0-6.62,5.67-9.23,13.41-9.23s18.23,3.13,26.31,8.18l7.22-14.8c-8.25-5.92-20.46-9.4-31.98-9.4-17.54,0-33.7,8.01-33.7,26.82-.17,33.44,47.97,22.81,47.97,41.79,0,6.97-6.53,9.93-14.96,9.93-9.97,0-22.7-4.35-30.61-11.49l-7.05,14.28c9.11,8.36,23.39,12.89,36.8,12.89,18.4,0,35.08-8.53,35.08-27.51,.17-33.61-48.49-24.38-48.49-41.45Z"/>
      <polygon class="cls-3" points="146.02 495.49 139.02 495.49 139.02 502.49 139.02 581.13 139.02 588.13 146.02 588.13 151.63 588.13 158.63 588.13 158.63 581.13 158.63 502.49 158.63 495.49 151.63 495.49 146.02 495.49"/>
      <path class="cls-3" d="M405.54,501.79v-7c-14.44,0-25.45,6.62-31.64,19.16v-18.46h-19.77v92.64h19.77v-48.41c1.55-15.85,13.24-26.82,31.64-25.77v-12.16Z"/>
      <path class="cls-3" d="M325.67,566.88c-5.33,2.61-9.63,4.01-13.76,4.01-6.19,0-9.8-2.96-9.8-12.54v-44.41h27v-14.98h-27v-25.43h-19.6v25.43h-12.9v14.98h12.9v48.06c0,18.98,11.86,26.99,25.62,26.99,7.74,0,15.3-2.44,22.52-6.79l-4.99-15.32Z"/>
      <path class="cls-3" d="M91,458.92h-7v52.59c-6.71-10.8-17.71-16.89-32.5-16.89-25.79,0-43.5,18.98-43.5,46.84s17.54,47.54,43.85,47.54c14.62,0,25.62-5.92,32.15-16.72v15.85h19.77v-129.21h-12.77Zm-63.23,83.24c.17-17.76,11.69-30.47,28.2-30.47s28.03,12.54,28.03,30.47-11.52,30.13-28.03,30.13-28.03-12.54-28.2-30.13h0Z"/>
      <path class="cls-3" d="M490.23,570.02v18.11h19.77v-92.64h-19.77v45.62c0,16.2-9.29,28.56-25.11,28.91h0c-13.24,0-21.32-8.53-21.32-22.46v-52.07h-19.78v57.64c0,22.12,12.55,35.7,33.53,35.7h0c14.96-.17,26.48-5.92,32.67-18.81Z"/>
      <path class="cls-2" d="M174.87,306.44c-17.28,0-31.43,14.16-31.43,31.83s13.99,31.83,31.43,31.83,31.43-14.33,31.43-31.83-13.99-31.83-31.43-31.83Zm0,55.65c-12.91,0-23.43-10.63-23.43-23.83s10.64-23.83,23.43-23.83,23.43,10.63,23.43,23.83-10.53,23.83-23.43,23.83Z"/>
      <path class="cls-2" d="M384.21,158.13c17.28,0,31.43-14.16,31.43-31.83s-13.99-31.83-31.43-31.83-31.6,14.33-31.43,31.83c0,17.5,13.99,31.83,31.43,31.83Zm-23.43-31.9c-.12-13.07,10.46-23.75,23.43-23.75s23.43,10.63,23.43,23.83-10.64,23.83-23.43,23.83-23.43-10.63-23.43-23.83v-.08Z"/>
      <path class="cls-2" d="M231.59,338.59c0-9.45-2.32-18.39-6.38-26.25l11.36-11.5c6.45,3.25,13.76,5.09,21.41,5.09,6.99,0,13.73-1.58,19.73-4.3l9.83,9.96c-4.32,8.04-6.79,17.21-6.79,27,0,31.48,25.38,57.32,56.71,57.32s56.71-25.84,56.71-57.32-25.38-57.32-56.71-57.32c-9.66,0-18.7,2.48-26.62,6.82l-9.51-9.62c.71-1.47,1.34-2.98,1.89-4.52h102.49c7.1,23.52,28.66,40.66,54.35,40.66,31.3,0,56.66-25.78,56.71-57.23,.71-31.65-24.8-57.42-56.22-57.42-25.71,0-47.24,17.29-54.34,40.66h-102.57c-.64-1.78-1.37-3.5-2.17-5.15l57.27-57.84c7.58,3.79,16.08,6.01,25.12,6.01,31.34,0,56.71-25.84,56.71-57.32s-25.38-57.32-56.71-57.32-56.71,25.84-56.71,57.32c0,10.27,2.72,20.05,7.49,28.45l-57.13,57.7c-.87-.38-1.75-.74-2.66-1.07V112.08c23.32-7.21,40.32-29.03,40.32-54.75,0-31.48-25.38-57.32-56.71-57.32s-56.71,25.84-56.71,57.32c0,25.84,16.97,47.7,40.32,54.79v99.42c-1.45,.54-2.87,1.15-4.25,1.81l-58.7-59.15c4.6-8.27,7.2-17.78,7.2-27.89,0-31.48-25.38-57.32-56.71-57.32s-56.88,25.8-56.88,57.32,25.38,57.32,56.71,57.32c9.26,0,18.08-2.2,25.87-6.25l59.06,59.8c-.51,1.12-.99,2.27-1.41,3.43H111.07c-7.1-23.52-28.66-40.66-54.35-40.66-31.34,0-56.71,25.84-56.71,57.32s25.38,57.32,56.71,57.32c25.71,0,47.24-17.29,54.34-40.66h102.09c.34,.93,.69,1.84,1.07,2.73l-11.84,11.89c-8.09-4.54-17.46-7.3-27.5-7.3-31.34,0-56.71,25.84-56.71,57.32s25.38,57.32,56.71,57.32,56.71-25.84,56.71-57.32Zm-56.71,49.32c-26.82,0-48.71-22.16-48.71-49.32s21.89-49.32,48.71-49.32c4.68,0,9.2,.7,13.48,1.98,5.51,1.64,10.61,4.24,15.15,7.52h0l20.41-20.5c-2.14-3.83-3.79-7.83-4.77-12.33H104.77c-4.11,23-24.03,40.66-48.05,40.66-26.82,0-48.71-22.16-48.71-49.32s21.89-49.32,48.71-49.32c24.03,0,43.94,17.5,48.05,40.66h114.21c.99-4.67,2.8-9,5.27-12.83l-67.64-68.49c-7.73,5.33-17.12,8.33-27.15,8.33-26.82,0-48.71-22.16-48.71-49.32s22.05-49.32,48.88-49.32,48.71,22.16,48.71,49.32c0,10.83-3.46,20.83-9.38,28.99l67.47,67.99c4.11-2.67,8.72-4.67,13.66-5.83V105.81c-22.88-4-40.32-24.16-40.32-48.49,0-27.16,21.89-49.32,48.71-49.32s48.71,22.16,48.71,49.32c0,24.16-17.44,44.32-40.32,48.49v111.64c4.44,.83,8.39,2.5,12.18,4.83l65.83-66.49c-1.14-1.53-2.2-3.14-3.16-4.81-4.16-7.25-6.55-15.75-6.55-24.68,0-22.07,14.45-40.84,34.26-47.1,4.57-1.45,9.43-2.22,14.46-2.22,26.82,0,48.71,22.16,48.71,49.32s-21.89,49.32-48.71,49.32c-9.71,0-18.76-3-26.5-8l-65.83,66.49c2.8,4.33,4.94,9.16,6.09,14.5h114.87c1.03-5.75,3.04-11.16,5.87-16.05,.71-1.22,1.46-2.41,2.26-3.57,.8-1.15,1.65-2.27,2.55-3.35,1.34-1.62,2.79-3.15,4.32-4.58,.51-.48,1.03-.94,1.56-1.4,8.5-7.29,19.48-11.71,31.49-11.71h0c12.65,0,24.18,4.87,32.79,12.84,.57,.53,1.14,1.08,1.68,1.64,1.64,1.68,3.16,3.47,4.55,5.37s2.64,3.91,3.74,6c3.67,6.99,5.66,14.99,5.46,23.47,0,27.16-21.89,49.32-48.71,49.32-24.03,0-43.94-17.5-48.05-40.66h-114.87c-.49,2.5-1.23,4.92-2.2,7.23s-2.16,4.52-3.56,6.6l18.27,18.5h0c7.9-5.67,17.44-9,27.81-9h0c26.82,0,48.71,22.16,48.71,49.32s-21.89,49.32-48.71,49.32h0c-14.25,0-27.11-6.25-36.03-16.19-1.05-1.17-2.04-2.39-2.98-3.66-.94-1.27-1.81-2.58-2.63-3.94-4.48-7.46-7.07-16.2-7.07-25.54,0-10.5,3.29-20.16,8.89-28.16l-18.43-18.66c-6.09,3.83-13.49,6.17-21.23,6.17-1.05,0-2.09-.04-3.12-.12-7.22-.57-13.97-3.11-19.59-7.04h0s-20.08,20.33-20.08,20.33c.33,.49,.65,.99,.96,1.49,3.12,5.02,5.38,10.67,6.54,16.7,.12,.6,.22,1.21,.32,1.82,.19,1.22,.33,2.46,.43,3.7,.1,1.25,.14,2.51,.14,3.78,0,27.16-21.89,49.32-48.71,49.32Z"/>
      <path class="cls-2" d="M57.21,225.79c-1.62,0-3.21,.12-4.77,.36-1.04,.16-2.06,.37-3.06,.63-1,.26-1.99,.57-2.95,.92-12.02,4.44-20.66,16.11-20.66,29.9,0,17.66,13.99,31.99,31.43,31.99s31.43-14.33,31.43-31.99-13.99-31.83-31.43-31.83Zm0,55.82c-12.88,0-23.43-10.6-23.43-23.99s10.64-23.83,23.43-23.83,23.43,10.63,23.43,23.83-10.69,23.99-23.43,23.99Z"/>
      <path class="cls-2" d="M428.8,257.61c0,13.25,7.87,24.62,19.16,29.48,.47,.2,.95,.39,1.43,.57,.96,.36,1.95,.67,2.96,.93,2.52,.66,5.16,1.01,7.88,1.01,17.28,0,31.43-14.33,31.43-31.99,0-2.73-.34-5.39-.98-7.93-.39-1.52-.88-3-1.47-4.43-.2-.48-.41-.95-.63-1.41-5.06-10.66-15.81-18.06-28.35-18.06-1.62,0-3.21,.12-4.77,.36-2.07,.32-4.08,.85-6.01,1.56-12.02,4.44-20.66,16.11-20.66,29.9Zm31.43-23.83c12.91,0,23.43,10.63,23.43,23.83s-10.69,23.99-23.43,23.99-23.43-10.6-23.43-23.99,10.64-23.83,23.43-23.83Z"/>
      <path class="cls-2" d="M289.41,57.82c0-17.5-13.99-31.83-31.43-31.83s-31.43,14.16-31.43,31.83,14.15,31.83,31.43,31.83,31.43-14.16,31.43-31.83Zm-54.87,0c0-13.31,10.64-23.83,23.43-23.83s23.43,10.63,23.43,23.83-10.64,23.83-23.43,23.83-23.43-10.65-23.43-23.83Z"/>
      <path class="cls-2" d="M337.96,369.92c17.28,0,31.43-14.16,31.43-31.83s-13.99-31.83-31.43-31.83-31.6,14.33-31.43,31.83c0,17.5,13.99,31.83,31.43,31.83Zm-23.43-31.9c-.12-13.07,10.46-23.75,23.43-23.75s23.43,10.63,23.43,23.83-10.64,23.83-23.43,23.83-23.43-10.63-23.43-23.83v-.08Z"/>
      <path class="cls-2" d="M137.35,95.49c-2.52-.66-5.17-1.01-7.89-1.01-17.28,0-31.43,14.16-31.43,31.83s14.15,31.99,31.6,31.83c2.16,0,4.27-.22,6.31-.64,14.29-2.95,25.12-15.73,25.12-31.18s-10.08-27.27-23.7-30.82Zm-7.73,54.65h-.08c-12.86,.12-23.52-10.47-23.52-23.83s10.64-23.83,23.43-23.83,23.6,10.68,23.6,23.83-10.64,23.83-23.43,23.83Z"/>
    </g>
  </g>
</svg>